<?xml version="1.0" standalone="no"?>
<!DOCTYPE svg PUBLIC "-//W3C//DTD SVG 20010904//EN"
 "http://www.w3.org/TR/2001/REC-SVG-20010904/DTD/svg10.dtd">
<svg version="1.0" xmlns="http://www.w3.org/2000/svg"
 width="1600.000000pt" height="855.000000pt" viewBox="0 0 1600.000000 855.000000"
 preserveAspectRatio="xMidYMid meet">

<g transform="translate(0.000000,855.000000) scale(0.100000,-0.100000)"
fill="#000000" stroke="none">
<path d="M9550 7629 c-292 -12 -416 -24 -443 -44 -12 -8 -38 -27 -57 -40 -52
-37 -61 -45 -55 -54 6 -11 113 -6 145 7 14 5 57 15 95 22 39 6 111 20 160 30
177 37 207 42 240 36 22 -5 36 -2 45 9 7 8 24 15 39 15 14 1 49 7 76 15 l50
14 -40 -1 c-22 -1 -137 -5 -255 -9z"/>
<path d="M10122 7625 c-12 -9 -41 -15 -64 -15 -24 1 -65 -4 -93 -9 -27 -6 -70
-14 -95 -19 -25 -5 -94 -19 -155 -31 -60 -12 -144 -29 -185 -37 -41 -9 -109
-22 -150 -31 -41 -8 -91 -18 -112 -23 -20 -4 -42 -4 -49 1 -7 4 -22 2 -33 -4
-29 -16 -105 -36 -140 -37 -16 0 -27 -2 -24 -5 3 -3 101 2 219 11 162 13 369
17 849 19 l635 3 135 26 c240 48 283 56 385 79 l100 22 -60 7 c-236 26 -784
58 -1015 58 -97 0 -131 -4 -148 -15z m-164 -131 c-4 -3 -12 5 -18 18 -12 22
-12 22 6 6 10 -10 15 -20 12 -24z"/>
<path d="M8850 7584 c-231 -24 -590 -65 -695 -80 -210 -30 -246 -35 -450 -69
-233 -38 -421 -72 -447 -81 -10 -3 -18 -12 -18 -20 0 -8 -9 -14 -19 -14 -58 0
-67 -35 -21 -77 40 -35 42 -63 3 -38 -16 10 -32 23 -38 30 -5 6 -27 17 -47 24
-32 11 -36 15 -29 34 7 17 16 21 41 19 17 -1 41 5 53 13 12 8 16 15 10 15 -16
0 -187 -35 -298 -60 -49 -11 -112 -25 -140 -30 -66 -12 -472 -113 -605 -151
-58 -16 -139 -39 -180 -50 -503 -139 -1288 -419 -1655 -589 -47 -22 -88 -40
-91 -40 -3 0 -77 -34 -165 -77 -131 -62 -158 -79 -154 -94 8 -24 -14 -35 -29
-14 -11 15 -15 14 -53 -7 -40 -23 -41 -24 -23 -45 9 -12 26 -49 36 -82 15 -48
23 -59 36 -55 9 3 81 37 160 76 150 73 393 182 588 263 63 26 120 54 126 61 6
8 21 14 34 14 12 0 95 28 184 61 296 113 1032 351 1196 389 141 32 471 121
497 135 18 9 37 14 42 11 5 -4 103 14 218 38 463 99 845 167 1213 217 89 12
319 53 410 74 36 8 87 18 115 21 61 9 94 22 205 85 48 27 97 49 108 49 12 0
24 5 28 11 3 6 20 19 38 30 l31 19 -40 -1 c-22 -1 -101 -8 -175 -15z m-1793
-350 c-3 -3 -16 -4 -29 -2 l-23 5 25 10 c23 10 41 1 27 -13z m-145 -64 c-39
-24 -38 -24 -46 -4 -3 8 -2 12 4 9 5 -3 18 -1 27 4 34 20 48 11 15 -9z m-102
-54 c0 -2 -8 -10 -17 -17 -16 -13 -17 -12 -4 4 13 16 21 21 21 13z m-1046
-225 c3 -5 21 -9 40 -9 57 0 77 -24 30 -36 -33 -9 -64 1 -64 20 0 10 -6 13
-19 9 -21 -6 -51 3 -51 16 0 12 57 12 64 0z m-714 -186 c-14 -8 -32 -14 -40
-14 -8 0 -1 7 15 14 39 18 57 18 25 0z m-85 -15 c-3 -5 -14 -10 -23 -9 -14 0
-13 2 3 9 27 11 27 11 20 0z m-858 -429 c20 -18 28 -31 20 -34 -10 -3 -87 67
-87 80 0 8 36 -17 67 -46z"/>
<path d="M11430 7527 c-30 -13 -71 -33 -90 -45 -19 -12 -42 -22 -50 -22 -10 0
-15 -10 -15 -34 l0 -33 70 -6 c78 -7 403 -52 480 -67 28 -6 122 -24 210 -41
88 -16 176 -34 195 -39 19 -5 115 -30 213 -55 211 -54 513 -156 687 -232 708
-308 1102 -733 1136 -1227 9 -133 -19 -330 -61 -431 -7 -16 -16 -41 -20 -54
-11 -35 -79 -178 -116 -240 l-31 -54 46 27 c53 31 89 41 83 23 -2 -6 -19 -16
-38 -21 -19 -5 -38 -16 -43 -24 -4 -8 -23 -20 -40 -27 -18 -8 -46 -33 -62 -57
-86 -127 -230 -294 -367 -426 -38 -37 -65 -72 -63 -79 3 -8 -2 -13 -15 -13
-11 0 -41 -19 -67 -43 -193 -176 -518 -411 -811 -587 -67 -40 -120 -75 -117
-77 2 -2 23 1 45 8 23 7 44 9 48 6 11 -12 -2 -16 -66 -20 -34 -3 -67 -9 -72
-14 -5 -5 5 -25 26 -48 32 -38 42 -55 30 -55 -3 0 -25 18 -50 41 l-44 41 -130
-71 c-559 -304 -1328 -622 -2011 -831 -58 -17 -124 -38 -147 -46 -50 -16 -264
-76 -483 -134 -85 -23 -160 -46 -166 -51 -9 -8 -78 -34 -146 -56 -10 -3 -18
-14 -18 -24 0 -14 -14 -23 -57 -35 -32 -9 -60 -20 -63 -25 -5 -7 -95 -49 -106
-49 -2 0 -4 5 -4 11 0 5 19 19 43 29 24 11 54 28 68 38 13 11 48 31 77 46 53
27 65 37 35 30 -10 -2 -88 -20 -173 -39 -189 -43 -187 -42 -172 -57 7 -7 12
-17 12 -23 -1 -5 -9 0 -19 12 l-19 23 -104 -21 c-56 -12 -112 -28 -122 -38
-13 -10 -17 -11 -11 -2 6 11 2 13 -21 9 -98 -17 -503 -89 -521 -93 -16 -4 -20
-10 -16 -27 l6 -23 -19 21 -19 22 -160 -24 c-550 -81 -1084 -131 -1592 -150
-101 -4 -183 -11 -183 -16 0 -4 5 -8 12 -8 6 0 8 -3 5 -7 -4 -3 -16 2 -27 12
-17 15 -31 17 -92 11 -293 -25 -1211 24 -1666 89 -407 59 -791 139 -1073 226
-53 16 -99 29 -102 29 -3 0 -3 -18 0 -40 3 -22 3 -40 0 -40 -4 0 -16 22 -28
49 l-21 49 -104 36 -105 37 -30 -22 c-26 -18 -34 -20 -60 -9 -33 14 -49 37
-49 70 0 15 -11 25 -37 36 -62 26 -253 123 -318 161 -286 171 -486 349 -617
549 l-60 92 -58 -35 c-32 -19 -65 -42 -75 -53 -15 -17 -15 -21 4 -58 27 -54
133 -192 204 -269 140 -150 400 -338 627 -454 47 -24 87 -44 90 -44 3 -1 32
-15 65 -32 98 -50 379 -158 540 -208 408 -127 936 -233 1380 -280 469 -48 792
-65 1290 -65 802 0 1594 67 2400 205 116 20 221 38 235 40 26 4 473 93 600
120 141 30 685 167 860 217 821 234 1536 508 2175 833 409 209 741 405 992
589 168 122 165 120 146 133 -10 8 -30 11 -49 7 -39 -7 -107 13 -101 29 4 12
79 12 107 0 20 -8 114 -12 120 -4 3 3 28 24 55 46 98 77 292 255 380 346 373
392 568 758 615 1155 26 217 -39 524 -148 704 -127 208 -250 348 -435 491 -86
67 -98 73 -124 70 -7 -1 -10 5 -7 12 4 10 -38 40 -138 100 -197 119 -400 213
-648 302 -41 15 -91 33 -110 40 -19 7 -39 13 -45 14 -5 1 -52 15 -104 32 -187
60 -485 129 -834 194 -48 9 -120 18 -160 19 -39 2 -85 9 -100 15 -44 17 -107
13 -167 -12z m920 -226 c0 -19 -31 -32 -67 -29 l-38 3 28 15 c31 18 77 24 77
11z m950 -282 c0 -5 -4 -7 -10 -4 -5 3 -10 1 -10 -6 0 -7 -3 -10 -6 -6 -8 7 4
27 17 27 5 0 9 -5 9 -11z m380 -213 c0 -8 -107 -36 -132 -35 -19 1 -17 3 10
10 17 5 47 13 65 18 37 10 57 13 57 7z m404 -442 c9 -3 16 -10 16 -15 0 -15
-47 -10 -60 6 -10 12 -9 15 8 15 11 0 27 -3 36 -6z m150 -23 c14 -22 -72 -27
-100 -6 -17 13 -14 14 38 15 31 0 59 -4 62 -9z m166 -812 c11 -20 11 -20 -19
-4 -36 18 -39 25 -11 25 10 0 24 -9 30 -21z m-100 -457 c0 -11 -90 -56 -98
-48 -9 9 43 39 96 55 1 1 2 -2 2 -7z m-1290 -1341 c-8 -5 -33 -12 -55 -15
l-40 -7 30 15 c33 16 91 22 65 7z m-136 -32 c-10 -4 -28 -8 -39 -7 -15 0 -13
3 10 13 17 7 34 10 39 7 5 -3 1 -9 -10 -13z m-114 -24 c-14 -8 -34 -14 -45
-14 -18 0 -17 1 5 14 14 8 34 14 45 14 18 0 17 -1 -5 -14z m-433 -225 c28 -52
14 -52 -20 0 -15 23 -21 40 -14 40 7 0 22 -18 34 -40z m-1497 -750 c0 -5 -15
-10 -32 -10 -25 0 -29 3 -18 10 20 13 50 13 50 0z m-184 -35 c-10 -8 -23 -12
-29 -8 -11 7 12 23 33 23 12 -1 11 -4 -4 -15z m-171 -25 c-27 -12 -43 -12 -25
0 8 5 22 9 30 9 10 0 8 -3 -5 -9z m-186 -34 c-11 -9 -69 -15 -64 -6 3 6 20 10
37 10 17 0 29 -2 27 -4z m-164 -25 c-14 -12 -82 -24 -70 -12 10 9 38 18 65 20
8 1 10 -2 5 -8z m-605 -196 c-7 -8 -10 -22 -6 -30 4 -10 -1 -15 -15 -15 -11 0
-17 4 -14 10 3 6 -1 7 -9 4 -9 -3 -16 -1 -16 5 0 6 7 11 15 11 9 0 18 7 21 15
4 8 13 15 21 15 13 0 13 -3 3 -15z m-442 -137 c-7 -19 -34 -32 -54 -24 -19 7
-19 8 0 22 24 17 59 19 54 2z m-5760 -51 c-3 -21 -4 -21 -22 6 -16 24 -17 30
-5 37 17 11 32 -12 27 -43z m455 -12 c-32 -14 -132 -32 -123 -22 11 11 97 36
125 36 l30 0 -32 -14z m944 -129 c8 -8 -98 -36 -136 -36 -31 0 -33 2 -21 14
24 24 140 39 157 22z"/>
<path d="M11125 7474 c-66 -14 -122 -30 -126 -36 -4 -6 -16 -9 -27 -6 -11 3
-25 2 -31 -2 -7 -4 34 -10 90 -14 101 -6 102 -6 174 28 130 62 110 69 -80 30z"/>
<path d="M9687 7393 c-132 -3 -159 -6 -164 -19 -4 -12 -8 -13 -14 -3 -9 15
-260 2 -644 -32 -255 -22 -258 -22 -299 -54 -17 -13 -43 -29 -56 -35 -22 -9
-20 -9 15 -5 229 28 666 64 850 70 94 4 175 8 182 10 7 2 182 7 390 10 334 6
385 9 440 26 34 10 70 20 80 21 10 0 -13 4 -52 8 -69 7 -418 8 -728 3z"/>
<path d="M10600 7371 c-41 -4 -95 -15 -120 -23 -45 -15 -44 -15 105 -20 83 -2
166 -2 185 2 42 7 72 2 65 -11 -4 -5 22 -9 59 -9 49 0 74 5 102 22 l38 22 -34
7 c-55 12 -317 18 -400 10z"/>
<path d="M11042 7326 l-32 -23 137 -12 c370 -32 817 -107 1185 -200 143 -36
147 -36 151 -16 3 18 4 18 16 -6 10 -20 31 -31 99 -53 232 -74 563 -210 665
-273 21 -13 43 -21 49 -17 7 4 8 3 4 -4 -4 -7 -3 -12 1 -12 27 0 259 -161 356
-247 28 -25 58 -43 72 -43 13 0 31 -3 40 -7 16 -5 15 -7 -3 -17 -20 -11 -18
-14 36 -77 110 -125 189 -265 233 -410 12 -41 28 -83 36 -94 15 -22 17 -39 4
-31 -5 3 -6 -41 -3 -102 3 -79 0 -135 -13 -207 -10 -55 -18 -112 -17 -127 1
-16 -2 -28 -7 -28 -4 0 -20 -33 -36 -72 -192 -497 -713 -1012 -1478 -1463 -75
-44 -136 -85 -136 -91 -1 -5 5 -19 13 -29 13 -18 17 -17 86 25 40 24 75 53 78
63 3 13 7 15 12 6 8 -13 93 37 290 170 212 142 566 424 555 441 -3 5 4 12 16
15 27 9 179 162 281 285 205 245 329 472 390 717 18 74 22 115 21 258 0 153
-3 179 -27 260 -83 285 -281 537 -586 746 -492 338 -1277 580 -2223 684 -188
20 -225 19 -265 -9z"/>
<path d="M8345 7284 c-55 -7 -116 -18 -135 -23 -38 -11 -109 -21 -183 -27 -27
-1 -54 -7 -60 -13 -7 -5 -55 -12 -108 -15 -106 -7 -147 -16 -181 -40 -12 -9
-40 -16 -62 -16 -22 0 -56 -5 -75 -11 -20 -6 -56 -18 -81 -26 -25 -8 -51 -17
-58 -19 -7 -2 -11 -8 -8 -12 3 -5 36 -3 73 4 141 27 437 75 676 109 208 29
254 38 280 57 17 13 43 28 57 35 l25 11 -30 0 c-16 0 -75 -6 -130 -14z"/>
<path d="M7250 7102 c-51 -6 -384 -76 -580 -122 -47 -10 -110 -29 -140 -40
-30 -11 -67 -20 -82 -20 -31 0 -256 -59 -503 -131 -219 -64 -200 -56 -185 -74
15 -18 7 -19 -19 -3 -16 10 -57 0 -243 -61 -122 -41 -304 -103 -403 -140
l-180 -66 69 -7 c66 -6 75 -4 215 46 241 88 613 207 831 267 63 17 129 40 146
50 17 11 40 19 50 19 11 0 28 6 39 14 11 7 31 17 45 21 23 7 24 7 10 -10 -14
-17 -13 -18 10 -11 45 12 474 117 520 127 25 5 74 16 110 24 78 18 79 19 250
52 74 14 137 28 139 29 2 2 -1 10 -8 18 -13 15 -51 23 -91 18z m-841 -216 c-8
-7 -27 -17 -42 -20 -42 -10 -30 14 14 29 39 14 49 11 28 -9z"/>
<path d="M12562 6528 c-30 -5 -61 -15 -69 -24 -11 -11 -26 -14 -49 -10 -23 5
-62 -3 -135 -28 -56 -19 -106 -39 -111 -44 -5 -5 -3 -47 7 -103 21 -126 23
-129 49 -129 13 0 29 -7 36 -15 7 -8 27 -15 46 -15 18 0 35 -4 38 -9 14 -22
-72 -29 -104 -9 -10 7 -22 9 -26 5 -13 -12 37 -261 55 -274 9 -6 19 -9 22 -7
8 5 59 -53 59 -67 0 -5 -4 -9 -10 -9 -5 0 -10 4 -10 9 0 12 -59 55 -66 48 -3
-3 -2 -21 1 -41 5 -26 12 -36 26 -36 23 0 25 -16 4 -28 -12 -6 -14 -18 -9 -50
6 -36 10 -42 30 -42 30 0 32 -26 3 -35 -15 -5 -19 -13 -15 -28 2 -12 12 -65
21 -117 8 -52 20 -117 26 -145 5 -27 37 -205 70 -395 33 -190 64 -363 67 -384
4 -22 13 -41 21 -44 10 -3 11 0 5 9 -6 11 -5 12 7 2 28 -23 347 18 446 58 208
83 332 207 399 400 41 118 55 218 55 394 0 176 -23 359 -64 504 -20 74 -26 85
-47 88 -14 2 -30 10 -37 19 -7 9 -27 15 -52 16 -23 0 -41 5 -41 10 0 5 -10 6
-22 2 -13 -4 -56 -7 -95 -6 -40 1 -73 0 -73 -3 0 -3 9 -23 20 -45 96 -189 145
-527 106 -733 -28 -146 -95 -245 -199 -297 -60 -29 -178 -56 -197 -45 -5 3
-12 20 -15 38 -3 18 -33 187 -66 377 -33 190 -73 416 -88 503 -26 154 -28 158
-65 196 -21 22 -49 41 -62 44 -13 2 -22 1 -19 -2 2 -4 0 -13 -4 -20 -6 -8 5
-27 30 -54 22 -22 37 -43 33 -46 -3 -3 -9 0 -13 8 -5 7 -12 13 -17 14 -5 1 -8
5 -7 9 3 9 -66 40 -77 33 -5 -3 -8 -19 -7 -34 1 -16 5 -27 8 -25 7 4 52 -56
46 -62 -2 -3 -21 10 -41 29 -49 47 -49 96 2 111 12 4 22 12 22 17 0 18 3 24
19 36 25 19 47 15 64 -10 8 -13 23 -24 32 -24 13 0 15 7 10 41 -4 23 -13 46
-21 52 -8 6 -12 19 -8 28 8 22 66 56 96 56 33 0 41 10 24 29 -13 14 -11 20 18
48 23 21 37 28 47 22 11 -7 10 -9 -4 -9 -10 0 -16 -4 -13 -9 3 -5 -1 -14 -8
-21 -8 -6 -14 -19 -13 -29 1 -24 87 -30 87 -6 0 8 -5 15 -11 15 -5 0 -8 4 -4
10 3 5 12 7 20 4 8 -4 12 -10 9 -15 -3 -5 0 -9 6 -9 6 0 8 -5 5 -10 -3 -6 2
-13 12 -16 62 -20 105 -46 160 -96 34 -32 66 -58 70 -58 5 0 17 7 27 15 30 23
72 18 132 -15 43 -23 59 -28 78 -20 15 5 37 5 57 0 18 -5 35 -8 37 -5 9 9 -61
156 -107 224 -56 83 -90 123 -156 177 -64 53 -92 68 -92 49 0 -8 4 -12 8 -10
3 3 12 -2 18 -9 8 -10 9 -16 1 -21 -5 -3 -10 -1 -10 4 0 6 -6 11 -14 11 -8 0
-17 7 -20 15 -3 9 -22 23 -41 31 -19 8 -35 18 -35 23 0 5 -8 12 -17 16 -25 10
-246 12 -311 3z m71 -61 c-30 -31 -25 -74 9 -88 34 -14 56 -6 68 23 8 21 9 22
9 3 1 -12 -10 -27 -27 -37 -27 -16 -30 -16 -60 2 -40 25 -44 73 -9 106 29 28
37 21 10 -9z m72 21 c21 -9 35 -28 20 -28 -12 0 -55 24 -55 32 0 11 4 10 35
-4z m188 -19 c-3 -12 -2 -24 3 -28 5 -3 22 -21 38 -39 37 -40 18 -42 -27 -2
-71 62 -111 21 -46 -48 22 -22 35 -43 31 -46 -8 -5 -69 53 -85 81 -12 19 11
63 33 63 11 0 20 6 20 13 0 16 21 38 31 32 4 -3 5 -14 2 -26z m-182 -26 c13
-15 12 -15 -8 -2 -19 11 -27 11 -43 1 -11 -7 -20 -8 -20 -4 0 26 51 30 71 5z
m55 -110 c10 -16 18 -31 17 -34 -1 -4 5 -6 13 -5 9 0 23 -9 31 -22 14 -20 14
-22 -1 -16 -9 3 -16 10 -16 15 0 5 -6 9 -13 9 -14 0 -47 35 -47 51 0 5 -4 8
-8 5 -5 -3 -9 1 -9 9 0 23 13 18 33 -12z m-155 -86 c-13 -13 -26 -3 -16 12 3
6 11 8 17 5 6 -4 6 -10 -1 -17z m529 -67 c12 -8 11 -10 -7 -10 -13 0 -23 5
-23 10 0 13 11 13 30 0z m-645 -51 c-7 -19 -99 -26 -92 -7 2 8 19 12 46 11 24
-1 41 3 41 9 0 6 2 9 5 6 3 -3 3 -11 0 -19z m929 -814 c3 -9 0 -15 -8 -15 -7
0 -19 7 -26 15 -10 12 -9 15 8 15 11 0 22 -7 26 -15z m-874 -145 c0 -5 -12
-10 -27 -10 -22 0 -25 2 -13 10 20 13 40 13 40 0z"/>
<path d="M4856 6413 c-74 -17 -307 -113 -301 -124 10 -15 -43 -42 -70 -35 -17
4 -55 -7 -127 -40 -57 -25 -107 -50 -113 -56 -13 -12 30 4 84 32 45 22 73 25
102 9 16 -8 41 -2 127 35 59 25 177 74 264 109 152 61 155 63 124 73 -24 7
-49 6 -90 -3z"/>
<path d="M11844 6375 c25 -19 37 -19 30 0 -4 8 -16 15 -28 15 -21 -1 -21 -1
-2 -15z"/>
<path d="M11655 6355 c-71 -13 -184 -33 -250 -45 -66 -12 -155 -27 -199 -35
-43 -8 -80 -15 -82 -18 -2 -2 3 -41 12 -88 8 -46 24 -136 35 -199 10 -63 30
-178 44 -255 14 -77 48 -268 76 -425 27 -157 61 -348 75 -425 14 -77 29 -165
34 -195 5 -30 20 -120 34 -200 14 -79 26 -146 26 -147 0 -9 85 1 235 27 94 17
176 30 183 30 6 0 12 9 12 21 0 19 4 21 43 15 23 -4 51 -7 62 -8 28 -2 229 32
236 40 6 7 -48 342 -57 351 -2 2 -59 -5 -126 -17 -68 -12 -178 -31 -246 -43
-68 -12 -125 -20 -126 -18 -3 4 -65 335 -72 384 -2 17 -6 40 -9 52 -3 12 -2
24 2 26 5 3 83 18 176 33 92 15 167 31 167 35 0 7 -32 15 -89 22 -28 4 -22 25
9 32 22 5 36 2 48 -8 16 -14 122 -40 131 -32 2 2 -4 38 -14 79 -15 70 -18 75
-36 65 -43 -22 -102 23 -97 75 2 21 9 32 23 35 17 3 18 1 6 -13 -8 -9 -11 -26
-7 -40 7 -30 37 -42 52 -22 6 9 16 16 23 16 17 0 13 37 -6 55 -10 9 -35 32
-55 52 l-37 37 -178 -32 c-98 -17 -179 -29 -182 -27 -3 4 -71 380 -71 397 0 8
47 18 285 58 99 17 181 33 183 35 10 9 -23 133 -40 154 -16 21 -23 22 -66 15
-64 -11 -67 -11 -65 3 1 6 -11 16 -27 22 -48 16 -35 24 30 18 45 -5 60 -3 60
6 0 18 37 38 56 30 14 -5 16 -3 11 11 -4 10 -7 26 -7 37 0 16 -5 18 -24 13
-18 -4 -27 -1 -36 15 -13 25 -1 25 -165 -4z m-1 -85 c31 -11 34 -30 5 -30 -25
0 -59 17 -59 30 0 13 22 13 54 0z m40 -123 c-11 -31 -112 -66 -120 -42 -4 11
80 53 108 54 10 1 15 -4 12 -12z m-165 -76 c18 -12 -24 -41 -59 -41 -14 0 -31
-9 -38 -20 -7 -12 -23 -20 -38 -20 -35 0 -23 14 49 54 69 40 67 39 86 27z
m-209 -21 c-36 -11 -52 -11 -45 0 3 6 21 10 38 9 31 -1 31 -1 7 -9z m600 -659
c0 -9 -11 -14 -62 -27 l-23 -5 24 20 c24 22 61 28 61 12z m-455 -27 c22 -2 63
-9 90 -15 28 -6 88 -13 134 -14 78 -3 100 -12 101 -36 0 -11 -50 -17 -56 -7
-4 5 -17 7 -29 4 -13 -3 -26 -2 -29 3 -3 4 -33 11 -67 15 -34 4 -69 12 -79 19
-14 8 -29 7 -60 -3 -38 -13 -44 -12 -55 3 -7 9 -22 17 -34 17 -13 0 -21 6 -21
16 0 13 6 15 33 9 17 -3 50 -9 72 -11z m-71 -436 c-5 -8 -2 -9 12 -4 47 20 52
19 50 -8 -1 -19 -6 -26 -22 -26 -23 0 -58 32 -47 43 10 11 15 8 7 -5z m146
-68 c0 -11 -42 -30 -63 -30 -17 1 32 40 49 40 8 0 14 -5 14 -10z m75 -143
c-16 -6 -36 -16 -43 -23 -9 -10 -30 -12 -75 -7 -34 3 -64 8 -67 10 -12 11 30
23 80 23 30 0 61 4 68 9 7 4 25 6 40 3 l27 -5 -30 -10z m250 -67 c18 -7 18 -9
3 -15 -23 -9 -61 -2 -66 13 -4 14 31 15 63 2z m-335 -20 c0 -11 -2 -20 -4 -20
-2 0 -6 9 -9 20 -3 11 -1 20 4 20 5 0 9 -9 9 -20z m654 -31 c5 -5 7 -12 3 -16
-11 -10 -118 -3 -141 9 -20 11 -20 11 -2 18 25 8 128 0 140 -11z m-190 -24
c-22 -16 -50 -19 -58 -6 -8 12 11 19 48 20 28 1 29 0 10 -14z m-354 -63 c0 -4
-14 -13 -31 -21 -22 -10 -28 -18 -23 -30 14 -33 16 -61 5 -61 -6 0 -11 7 -11
15 0 8 -14 30 -31 48 l-31 32 53 8 c29 4 55 10 58 12 7 7 11 6 11 -3z"/>
<path d="M10720 6190 c-19 -4 -70 -13 -113 -20 -72 -12 -78 -15 -73 -34 3 -12
21 -115 41 -231 49 -288 53 -305 73 -298 16 6 16 5 0 -13 -14 -16 -15 -27 -8
-59 5 -22 14 -41 20 -43 7 -3 8 -8 1 -16 -7 -8 2 -68 25 -181 19 -94 37 -183
40 -200 3 -16 16 -79 30 -139 13 -60 24 -110 24 -112 0 -2 10 -4 23 -4 32 0
67 -11 67 -21 0 -5 -18 -12 -40 -15 -25 -4 -37 -11 -33 -18 3 -6 -4 -1 -16 12
-24 25 -27 25 -93 22 -43 -2 -48 0 -48 20 0 18 4 21 23 16 12 -4 39 -10 61
-13 l38 -6 -16 32 c-18 34 -40 39 -95 20 -21 -7 -30 -16 -27 -25 4 -10 -2 -14
-19 -14 -19 0 -79 -21 -104 -37 -2 -1 25 -53 59 -115 35 -62 74 -133 88 -158
13 -25 45 -81 70 -125 25 -44 61 -110 81 -147 20 -38 40 -68 46 -68 24 1 267
49 272 54 4 3 1 37 -6 76 l-13 70 -38 -20 c-46 -23 -73 -25 -89 -6 -14 17 12
26 75 26 22 0 43 2 45 5 5 5 -21 177 -27 184 -3 3 -20 -10 -39 -29 l-34 -33
-7 27 c-3 14 -11 26 -18 25 -6 -1 -38 -1 -71 0 -43 1 -56 4 -45 11 8 5 28 10
44 10 16 0 45 4 65 10 20 5 48 12 64 15 23 5 27 10 27 38 0 17 -5 50 -10 73
-8 36 -54 286 -67 369 -35 220 -56 322 -69 331 -11 8 -11 13 -3 16 8 3 6 35
-10 122 -11 66 -23 121 -26 124 -2 3 -11 -1 -20 -8 -21 -17 -19 4 2 25 15 15
15 25 5 84 -6 36 -23 131 -37 211 -14 80 -27 155 -30 168 -6 23 -10 24 -65 12z
m30 -25 c0 -10 -41 -25 -52 -19 -8 5 -5 10 8 15 22 9 44 11 44 4z m-66 -244
c7 -11 -49 -25 -64 -16 -5 3 -10 10 -10 16 0 12 67 12 74 0z m96 -256 c0 -5
-79 -45 -89 -45 -3 0 10 11 29 25 31 23 60 33 60 20z m4 -184 c21 -5 44 -15
50 -21 8 -9 -4 -10 -54 -5 -81 8 -102 14 -95 26 8 11 48 11 99 0z m180 -605
c-3 -8 -12 -12 -20 -9 -21 8 -17 23 6 23 13 0 18 -5 14 -14z m1 -76 c4 -6 -8
-10 -29 -10 -19 0 -38 5 -41 10 -4 6 8 10 29 10 19 0 38 -4 41 -10z"/>
<path d="M3665 6147 c-28 -15 -35 -22 -23 -25 9 -2 23 -16 30 -33 7 -16 16
-29 20 -29 10 0 30 -68 23 -80 -9 -15 12 -12 46 6 27 14 30 19 23 47 -3 18
-14 46 -22 62 -9 17 -16 33 -17 37 0 4 -9 14 -20 22 -18 12 -25 11 -60 -7z"/>
<path d="M4313 6147 c-18 -7 -32 -16 -30 -22 2 -12 -1 -12 57 14 48 22 27 28
-27 8z"/>
<path d="M3995 6043 c-71 -36 -131 -66 -133 -68 -2 -1 -6 -19 -9 -39 l-6 -37
187 93 c102 51 186 96 186 101 0 4 -13 1 -30 -8 -29 -15 -30 -15 -30 5 0 31
-24 25 -165 -47z"/>
<path d="M3460 6036 c-56 -31 -74 -47 -72 -60 3 -13 -1 -17 -12 -13 -8 3 -1
-13 17 -38 38 -52 66 -64 95 -39 17 14 18 21 9 41 -9 19 -7 27 11 43 28 26 50
16 58 -26 4 -24 2 -38 -10 -50 -10 -9 -15 -19 -12 -21 6 -7 92 43 102 58 10
17 -16 94 -42 123 -33 35 -56 32 -144 -18z"/>
<path d="M10065 6075 c-5 -2 -54 -11 -107 -20 l-98 -17 0 -44 c0 -25 -5 -44
-11 -44 -6 0 -8 -8 -4 -19 3 -10 -4 -42 -15 -71 l-20 -52 19 -106 c11 -59 36
-199 56 -312 20 -113 40 -229 46 -258 l11 -53 34 7 c29 5 33 4 28 -10 -3 -9
-17 -19 -30 -22 -18 -5 -24 -13 -24 -34 0 -47 25 -63 83 -55 35 5 48 4 43 -4
-4 -6 -25 -11 -46 -11 -68 0 -69 -1 -53 -83 9 -40 16 -73 18 -75 1 -1 21 5 45
13 52 18 60 19 60 2 0 -7 -22 -20 -50 -30 -27 -10 -50 -24 -50 -31 0 -16 19
-127 25 -144 5 -14 171 68 191 94 6 8 19 14 28 14 19 0 19 -4 1 99 -8 47 -20
88 -27 93 -7 4 -32 10 -55 14 -61 9 -55 28 7 22 58 -6 56 -10 35 94 -16 81
-73 376 -81 423 -3 17 -9 45 -14 63 -5 17 -5 32 -2 32 4 -1 53 -94 109 -208
109 -221 218 -428 238 -452 7 -8 16 -26 21 -40 l8 -25 5 24 c5 19 18 27 56 38
66 19 165 57 165 63 -1 3 -16 34 -34 70 -23 46 -40 66 -57 70 -21 5 -22 7 -6
13 16 6 10 23 -59 154 -42 82 -80 153 -84 158 -8 10 -24 38 -78 135 -14 25
-54 97 -90 160 -36 63 -76 134 -89 157 -112 200 -123 216 -148 208z m-55 -34
c0 -5 -13 -14 -29 -19 -24 -9 -29 -8 -25 3 5 12 20 20 47 24 4 0 7 -3 7 -8z
m-75 -61 c-10 -11 -20 -18 -23 -15 -7 6 18 35 31 35 5 0 2 -9 -8 -20z m200
-398 c35 -7 37 -9 18 -16 -12 -4 -31 -2 -42 3 -11 6 -36 11 -55 11 -20 0 -36
5 -36 11 0 12 23 10 115 -9z m225 -42 c12 -7 8 -10 -15 -10 -16 0 -37 5 -45
10 -12 7 -8 10 15 10 17 0 37 -5 45 -10z m-136 -719 c8 -12 -50 -35 -65 -26
-8 6 -4 12 12 21 28 16 46 17 53 5z"/>
<path d="M9778 5990 c6 -42 19 -46 14 -4 -2 19 -7 34 -11 34 -4 0 -6 -14 -3
-30z"/>
<path d="M3282 5934 c-24 -14 -41 -29 -39 -32 2 -4 9 -20 16 -37 6 -16 32 -45
57 -64 l45 -34 37 17 c20 9 48 26 62 36 l25 20 -27 0 c-15 0 -39 5 -54 10 -52
20 -98 85 -72 102 33 21 -12 5 -50 -18z"/>
<path d="M3753 5917 c-20 -11 -33 -27 -33 -39 0 -16 5 -18 31 -14 39 6 41 8
37 43 l-3 29 -32 -19z"/>
<path d="M9050 5914 c-225 -48 -400 -230 -474 -489 -36 -129 -50 -307 -36
-464 6 -69 13 -134 16 -143 6 -21 62 -34 77 -19 16 16 57 14 57 -4 0 -9 9 -15
21 -15 11 0 19 -5 17 -12 -2 -6 -26 -12 -54 -12 -36 -1 -49 -5 -49 -16 0 -8
-11 -17 -24 -18 -22 -3 -23 -7 -18 -46 4 -24 14 -67 24 -97 20 -60 11 -57 143
-44 72 8 45 -11 -43 -29 -56 -12 -62 -15 -60 -37 5 -43 111 -245 168 -317 65
-83 141 -145 168 -138 13 3 17 0 13 -10 -6 -16 62 -53 139 -75 69 -19 233 -17
315 5 122 33 347 154 336 181 -2 5 -14 70 -26 143 -23 130 -24 133 -47 127
-28 -7 -30 8 -3 26 19 13 20 19 10 74 -19 107 -18 105 -50 105 -17 0 -30 5
-30 10 0 6 11 10 25 10 21 0 25 5 25 28 0 24 -40 258 -55 320 -6 25 -8 25 -94
5 -15 -4 -22 -2 -18 4 4 6 25 13 47 17 22 3 40 10 40 15 0 6 -15 8 -32 5 -37
-5 -81 14 -86 37 -2 12 8 14 62 11 l65 -4 -6 38 c-3 22 -7 41 -9 43 -2 2 -28
-1 -56 -7 -29 -6 -125 -23 -213 -38 -88 -15 -164 -31 -169 -35 -7 -6 39 -323
49 -337 1 -1 39 5 85 14 94 17 110 15 110 -21 0 -16 6 -25 15 -25 13 0 15 -9
9 -49 -8 -59 12 -155 29 -144 9 5 9 3 0 -8 -8 -10 -9 -28 -3 -59 18 -89 15
-95 -42 -120 -73 -31 -184 -32 -250 -1 -65 30 -145 107 -193 184 -35 58 -44
66 -75 69 l-35 4 28 12 c15 6 27 13 27 15 0 2 -11 35 -24 73 -55 156 -82 363
-66 504 16 144 49 221 129 301 111 111 260 135 460 73 l24 -7 -8 69 c-4 38 -8
70 -10 72 -2 2 -18 6 -37 8 -55 9 -137 51 -179 94 -22 22 -37 45 -34 50 3 6 2
10 -2 10 -5 0 -17 23 -28 50 -11 28 -22 50 -25 49 -3 0 -34 -7 -70 -15z m-364
-730 c19 -15 18 -15 -3 -9 -15 4 -29 -1 -42 -14 -26 -26 -28 -26 -27 2 1 19
16 31 47 36 3 1 14 -6 25 -15z m781 -333 c6 -10 8 -23 4 -30 -13 -20 -36 -2
-37 28 -1 32 14 33 33 2z m-707 -41 c0 -5 -5 -10 -11 -10 -5 0 -7 5 -4 10 3 6
8 10 11 10 2 0 4 -4 4 -10z m892 -106 c-12 -8 -27 -12 -34 -8 -8 5 -6 10 8 15
35 14 50 10 26 -7z m32 -333 c15 -17 15 -19 1 -25 -9 -3 -35 -6 -58 -6 -32 0
-38 3 -29 12 7 7 29 11 49 11 35 -1 36 0 18 13 -10 8 -14 14 -8 14 5 0 18 -8
27 -19z m-119 -39 c-6 -4 -22 -18 -37 -31 -23 -20 -28 -21 -28 -8 0 9 12 23
28 31 29 16 53 21 37 8z"/>
<path d="M9450 4829 c0 -5 5 -7 10 -4 6 3 10 8 10 11 0 2 -4 4 -10 4 -5 0 -10
-5 -10 -11z"/>
<path d="M9225 5923 c6 -4 19 -25 30 -46 25 -49 78 -96 116 -104 16 -3 27 -8
25 -12 -3 -4 4 -7 15 -7 16 0 19 7 19 41 0 38 -4 43 -40 64 -22 12 -46 31 -54
43 -11 15 -29 22 -68 25 -29 3 -48 1 -43 -4z"/>
<path d="M12320 5856 c0 -2 8 -10 18 -17 15 -13 16 -12 3 4 -13 16 -21 21 -21
13z"/>
<path d="M3120 5832 c-383 -252 -555 -382 -785 -592 -169 -155 -254 -248 -418
-455 -87 -110 -206 -317 -267 -465 -36 -87 -90 -285 -90 -329 0 -34 4 -35 75
-32 33 1 37 0 22 -9 -9 -6 -36 -12 -59 -13 -42 -2 -43 -3 -51 -47 -8 -43 -4
-148 10 -253 l6 -49 41 5 c23 3 64 11 93 18 49 12 52 14 45 38 -3 14 -6 89 -6
166 1 295 89 512 374 918 14 19 14 20 -3 14 -12 -4 -16 -3 -12 4 4 6 13 8 20
5 8 -3 50 37 101 96 48 55 134 144 191 198 l103 97 -42 -8 c-24 -5 -58 -12
-75 -15 -19 -4 -33 -13 -33 -21 0 -14 -68 -49 -77 -39 -9 9 8 26 25 26 15 1
15 2 -2 15 -18 14 -18 15 8 25 15 5 38 10 51 10 12 0 25 7 29 15 3 8 16 15 28
15 13 0 46 12 75 27 58 29 77 25 47 -9 -19 -22 -19 -23 1 -8 11 8 56 45 100
81 131 108 281 217 463 339 155 102 170 115 152 125 -11 6 -17 14 -14 18 4 4
1 7 -8 7 -16 0 -46 32 -67 73 -17 31 -18 31 -51 9z"/>
<path d="M3545 5803 c-71 -41 -92 -59 -52 -44 15 6 27 8 27 5 0 -4 16 6 35 20
19 15 35 23 35 19 0 -4 5 0 11 10 6 10 9 20 7 22 -1 2 -30 -13 -63 -32z"/>
<path d="M3700 5830 c-9 -6 -10 -10 -3 -10 6 0 15 5 18 10 8 12 4 12 -15 0z"/>
<path d="M8085 5724 c-5 -1 -27 -5 -48 -9 -38 -6 -38 -6 -23 -30 15 -22 15
-24 0 -18 -9 3 -19 13 -22 23 -6 15 -14 15 -80 4 -41 -7 -75 -14 -78 -16 -3
-3 25 -190 30 -194 0 -1 22 1 49 5 34 6 47 5 47 -4 0 -14 -64 -30 -80 -20 -6
3 -10 1 -10 -6 0 -15 140 -802 143 -805 1 -2 22 0 45 3 31 4 42 10 38 19 -3 8
-2 14 2 15 4 0 18 3 32 6 14 2 53 7 88 10 72 6 70 -3 41 133 -11 52 -23 111
-26 130 -3 19 -12 43 -21 53 -14 16 -14 17 0 12 14 -6 14 4 -3 92 -10 54 -18
106 -19 116 0 9 -8 17 -17 17 -13 0 -15 2 -5 8 15 10 13 28 -23 227 -13 72
-27 151 -31 178 -6 48 -11 57 -29 51z m-40 -430 c19 -15 16 -16 -37 -11 -83 8
-110 26 -38 26 35 0 62 -5 75 -15z m145 -141 c0 -13 -3 -13 -15 -3 -8 7 -15
19 -15 27 0 13 3 13 15 3 8 -7 15 -19 15 -27z"/>
<path d="M3215 5601 c-133 -89 -155 -105 -155 -115 0 -21 -87 -86 -115 -86
-12 0 -39 -15 -61 -33 -21 -19 -44 -36 -50 -38 -12 -4 -81 -59 -128 -102 -26
-24 -28 -27 -9 -22 12 3 37 7 57 9 23 2 52 17 83 41 27 22 50 40 53 42 2 2 -1
12 -7 22 -10 15 -7 17 18 13 21 -3 39 3 63 22 54 40 233 163 326 223 47 30 74
52 60 48 -55 -15 -90 -29 -90 -37 0 -8 -20 -18 -70 -33 l-25 -7 27 21 c16 13
33 19 40 15 7 -4 10 -4 6 1 -14 15 118 78 147 71 11 -3 27 -1 35 4 12 7 11 9
-5 8 -11 0 -33 3 -50 6 -26 6 -46 -4 -150 -73z"/>
<path d="M11933 5610 c-21 -8 -34 -23 -15 -17 4 1 21 -10 37 -25 16 -15 31
-25 33 -23 3 2 1 20 -2 40 -7 36 -15 40 -53 25z"/>
<path d="M7230 5600 c-11 -7 -4 -10 27 -10 38 0 63 -13 49 -27 -3 -3 -42 2
-87 11 -77 15 -85 15 -126 0 l-44 -17 28 -23 c37 -30 23 -42 -17 -14 -28 20
-33 20 -53 7 -34 -22 -107 -100 -107 -114 0 -7 -4 -13 -8 -13 -5 0 -16 -17
-25 -38 -75 -170 -74 -412 3 -594 76 -182 177 -268 443 -379 43 -18 97 -49
119 -69 39 -34 43 -36 69 -23 14 7 57 17 95 22 38 5 84 13 102 16 20 5 32 4
32 -3 0 -12 -54 -32 -88 -32 -14 0 -39 -4 -56 -10 -17 -5 -48 -12 -68 -15
l-38 -6 16 -37 c10 -22 17 -68 18 -113 1 -68 -2 -79 -27 -112 -58 -76 -74 -81
-241 -83 -112 -1 -146 2 -134 10 12 9 6 15 -34 33 l-48 22 0 -61 c0 -55 2 -60
20 -55 11 3 20 1 20 -3 0 -5 -9 -12 -20 -15 -14 -4 -20 -15 -20 -34 0 -25 3
-27 35 -23 47 6 46 -15 -1 -24 l-37 -7 7 -75 c3 -41 8 -77 11 -80 2 -2 30 -13
62 -25 81 -28 257 -35 343 -13 133 34 234 120 297 252 20 41 33 78 29 81 -3 3
-23 1 -43 -5 -21 -6 -62 -14 -90 -18 -83 -10 -65 12 20 26 117 19 121 21 130
71 5 24 6 94 3 154 -12 294 -138 509 -360 614 -47 23 -89 41 -94 41 -16 0
-137 62 -171 87 -77 58 -106 204 -57 282 35 55 95 82 185 82 39 0 87 -5 105
-11 29 -9 39 -8 70 11 l36 21 0 111 c0 169 -4 183 -54 201 -83 31 -199 44
-226 26z m-66 -139 c9 -10 31 -21 47 -25 25 -5 29 -10 24 -25 -5 -17 1 -22 33
-31 38 -10 58 -32 46 -51 -8 -14 -24 -11 -24 6 0 9 -9 15 -22 15 -30 0 -41 8
-63 48 -16 27 -25 32 -56 32 -66 0 -91 22 -46 40 33 13 42 12 61 -9z m176
-153 c0 -6 8 -17 18 -24 16 -12 16 -13 0 -14 -19 0 -50 38 -42 52 7 10 24 1
24 -14z m140 -1447 c0 -10 -49 -21 -89 -21 l-26 1 25 14 c28 16 90 20 90 6z
m-226 -47 c3 -8 11 -12 17 -8 8 4 9 3 5 -5 -6 -9 -11 -9 -22 0 -10 8 -22 8
-45 0 -18 -6 -41 -11 -52 -11 -16 0 -17 3 -7 14 21 26 95 33 104 10z"/>
<path d="M5905 5340 c-55 -10 -111 -20 -125 -23 -14 -2 -45 -8 -70 -11 -25 -4
-79 -13 -120 -21 -41 -8 -142 -26 -225 -40 -82 -14 -173 -31 -201 -36 l-51
-10 28 -161 c16 -89 34 -165 40 -169 30 -18 101 -18 208 1 63 11 115 19 116
17 2 -3 91 -509 175 -992 17 -99 34 -183 38 -187 4 -4 33 -10 65 -14 50 -6 57
-5 51 9 -5 13 5 16 71 15 42 0 79 2 82 5 8 9 -96 589 -109 604 -6 7 -17 13
-24 13 -8 0 -14 5 -14 11 0 7 9 9 21 6 26 -7 29 -34 -35 322 -25 140 -44 256
-43 258 4 3 120 24 242 44 39 7 74 15 78 19 5 5 4 32 -2 61 -6 30 -18 97 -26
149 -25 154 -24 150 -48 149 -12 0 -67 -9 -122 -19z m-635 -140 c11 -6 25 -20
31 -32 l11 -21 -31 22 c-47 34 -54 54 -11 31z m665 -142 c-19 -11 -30 -5 -21
11 4 6 14 7 22 4 15 -5 14 -7 -1 -15z m-686 -17 c11 -7 9 -10 -7 -15 -24 -8
-72 2 -72 15 0 12 61 11 79 0z m227 -35 c18 -14 18 -15 -9 -25 -16 -6 -34 -11
-40 -11 -15 0 -38 35 -30 44 11 11 59 6 79 -8z m329 -626 c7 0 15 -7 19 -15 4
-12 -4 -14 -43 -14 -59 2 -84 14 -61 29 8 6 28 8 44 5 16 -3 34 -5 41 -5z"/>
<path d="M7497 5215 c-4 -8 -2 -17 3 -20 6 -4 10 3 10 14 0 25 -6 27 -13 6z"/>
<path d="M2730 5194 c-19 -7 -43 -13 -53 -13 -20 -1 -138 -89 -134 -100 1 -3
-2 -7 -8 -9 -17 -5 -74 -65 -70 -72 3 -4 -3 -14 -13 -21 -16 -13 -16 -12 -2 6
11 15 7 14 -13 -4 -29 -26 -35 -37 -14 -25 7 4 9 3 4 -2 -5 -5 -12 -9 -15 -9
-16 -1 -32 -17 -26 -27 4 -6 2 -8 -4 -5 -5 4 -33 -21 -62 -55 -28 -35 -62 -74
-74 -88 -40 -44 -141 -183 -178 -245 -97 -162 -155 -303 -199 -485 -15 -57
-20 -351 -7 -381 4 -11 14 -15 32 -12 l25 5 -6 127 c-9 195 29 363 127 566
114 237 331 507 590 736 41 37 91 80 110 97 19 17 33 31 30 31 -3 -1 -21 -7
-40 -15z"/>
<path d="M4335 5092 c-207 -72 -337 -277 -376 -596 -13 -104 -6 -413 10 -429
9 -9 41 -6 211 23 35 6 66 13 68 15 2 2 0 51 -4 108 l-7 106 -51 -20 c-28 -12
-58 -27 -66 -34 -16 -14 -70 -31 -70 -21 0 3 42 28 93 56 l93 50 11 92 c19
159 72 260 157 299 131 59 263 -39 360 -267 30 -71 45 -109 48 -124 1 -3 9
-34 19 -70 18 -70 13 -67 92 -54 23 4 37 2 37 -4 0 -12 -14 -17 -73 -27 -30
-5 -37 -10 -33 -23 13 -41 26 -186 27 -297 2 -282 -82 -436 -238 -437 -159 0
-303 222 -373 575 -14 68 -13 68 -156 32 -54 -14 -107 -25 -116 -25 -13 0 -18
-8 -18 -26 0 -71 91 -385 120 -414 9 -9 15 -21 13 -27 -7 -19 64 -147 127
-231 167 -222 362 -288 592 -202 88 33 219 164 251 254 7 16 4 18 -25 12 -67
-13 -113 -19 -107 -12 10 11 122 37 135 32 25 -10 74 183 89 347 6 58 4 77 -5
77 -10 0 -10 3 0 15 10 12 10 44 1 155 -20 237 -78 479 -153 643 -31 67 -32
68 -67 65 -27 -2 -36 1 -36 12 0 8 10 16 23 18 32 5 28 21 -27 98 -89 127
-190 211 -299 251 -79 29 -202 31 -277 5z m-65 -242 c0 -5 -16 -10 -35 -10
-19 0 -35 5 -35 10 0 6 16 10 35 10 19 0 35 -4 35 -10z m615 -340 c-3 -5 -14
-10 -23 -10 -15 0 -15 2 -2 10 20 13 33 13 25 0z m203 -262 c-6 -16 -49 -27
-73 -18 -21 8 -14 13 30 23 37 8 47 7 43 -5z m42 -348 c-8 -5 -19 -10 -25 -10
-5 0 -3 5 5 10 8 5 20 10 25 10 6 0 3 -5 -5 -10z m-1 -81 c-12 -8 -12 -10 1
-18 23 -16 -11 -24 -44 -11 -15 5 -45 10 -66 10 -35 0 -56 10 -45 21 2 2 41 5
86 6 54 1 78 -2 68 -8z m-744 -419 c-28 -7 -29 -8 -5 -10 14 -1 19 -4 12 -7
-18 -7 -44 5 -37 17 3 5 18 9 33 9 l27 -1 -30 -8z m513 -42 c-4 -13 -127 -32
-137 -23 -9 9 8 16 56 25 72 12 85 11 81 -2z"/>
<path d="M3401 4899 c-57 -10 -110 -20 -116 -23 -12 -4 -9 -22 70 -471 8 -49
18 -97 21 -105 4 -8 8 -35 10 -60 3 -25 14 -90 24 -145 32 -159 26 -145 63
-138 17 3 35 11 39 16 10 16 100 37 95 23 -3 -8 8 -10 34 -8 28 3 39 9 39 21
0 9 -23 143 -50 296 -28 154 -52 296 -55 315 -20 135 -52 294 -60 296 -6 1
-57 -7 -114 -17z m209 -714 c11 -13 8 -15 -19 -15 -21 0 -31 5 -31 15 0 8 8
15 19 15 10 0 24 -7 31 -15z"/>
<path d="M2675 4771 c-111 -19 -151 -30 -153 -41 -3 -17 155 -921 162 -928 3
-2 20 1 38 7 18 6 71 15 117 21 46 5 85 11 87 13 2 1 -15 92 -36 202 -22 110
-40 207 -40 215 0 8 43 -72 96 -178 52 -106 102 -196 111 -199 8 -3 63 4 122
16 58 13 114 23 124 24 9 1 17 3 17 4 0 6 -69 137 -104 198 -19 33 -40 59 -46
57 -6 -1 -9 2 -5 7 6 11 -18 64 -70 151 -18 30 -48 82 -67 116 -97 177 -193
344 -198 343 -3 -1 -72 -13 -155 -28z m65 -856 c19 -10 27 -20 24 -30 -8 -20
-18 -19 -36 3 -37 43 -34 51 12 27z"/>
<path d="M8570 4748 c0 -4 7 -8 15 -8 8 0 15 4 15 8 0 5 -7 9 -15 9 -8 0 -15
-4 -15 -9z"/>
<path d="M10199 4655 c-19 -13 -62 -38 -96 -55 -35 -17 -64 -34 -67 -38 -3 -6
64 -407 79 -470 4 -14 11 -22 19 -19 7 3 60 13 117 22 57 10 107 20 110 24 3
3 1 29 -3 58 -7 40 -13 51 -25 46 -13 -5 -13 -3 -3 14 11 16 6 56 -24 225 -20
113 -36 208 -36 211 0 15 -39 5 -71 -18z"/>
<path d="M8134 4659 c-2 -4 -23 -10 -46 -13 -73 -11 -73 -11 -55 -118 18 -104
68 -388 91 -518 9 -47 23 -128 32 -180 9 -52 17 -96 19 -98 5 -6 250 41 260
49 8 8 -2 85 -45 329 -5 25 -18 99 -30 165 -29 166 -24 156 -71 149 -23 -4
-39 -3 -39 3 0 11 43 33 64 33 11 0 10 20 -5 103 -10 56 -19 103 -19 103 0 5
-153 -2 -156 -7z m40 -246 c10 -11 -54 -30 -81 -25 -19 4 -21 7 -12 18 12 15
80 19 93 7z m196 -578 c6 -8 9 -19 5 -25 -9 -15 -41 -12 -54 4 -10 11 -8 17 6
25 24 14 28 14 43 -4z"/>
<path d="M11005 4570 c-3 -6 1 -7 9 -4 18 7 21 14 7 14 -6 0 -13 -4 -16 -10z"/>
<path d="M3650 3940 c-44 -8 -149 -61 -171 -86 -19 -21 -19 -19 35 -252 13
-57 20 -100 16 -95 -4 4 -37 71 -73 148 -37 77 -73 141 -81 143 -8 2 -33 -7
-57 -20 -77 -42 -84 -46 -108 -53 -41 -12 -19 16 35 46 27 14 49 33 48 41 -1
8 9 15 25 16 35 3 45 16 32 40 -7 13 -19 19 -33 17 -36 -4 -233 -47 -237 -51
-2 -2 1 -15 7 -28 l11 -24 65 18 c36 10 69 21 74 24 4 2 14 1 21 -3 16 -10
-82 -61 -117 -61 -19 0 -23 -4 -18 -17 4 -10 96 -177 204 -370 108 -194 206
-371 217 -393 33 -64 30 -64 161 -40 66 11 128 24 139 28 l21 7 -26 142 c-23
124 -29 145 -53 167 -15 14 -27 30 -27 36 0 5 -5 9 -11 8 -6 -2 -13 5 -14 14
-3 15 0 16 16 8 10 -6 19 -18 19 -26 0 -9 5 -12 12 -8 8 5 9 2 5 -10 -4 -10
-3 -15 3 -11 14 9 12 50 -5 136 -7 41 -31 171 -51 289 -20 118 -39 218 -43
221 -3 3 -22 3 -41 -1z m30 -441 c12 -9 12 -10 -3 -5 -10 3 -27 1 -38 -4 -12
-7 -19 -7 -19 -1 0 8 12 14 40 20 3 0 12 -4 20 -10z m-77 -44 c-3 -9 -8 -14
-10 -11 -3 3 -2 9 2 15 9 16 15 13 8 -4z m46 -1 c-10 -12 -10 -20 -1 -34 10
-16 9 -18 -3 -14 -21 9 -20 64 1 64 14 0 14 -3 3 -16z m49 4 c17 -17 15 -48
-5 -70 -18 -20 -58 -24 -68 -8 -4 7 2 9 19 4 16 -4 32 -1 41 6 20 17 19 57 -2
69 -10 6 -13 11 -7 11 5 0 15 -5 22 -12z m-17 -166 c-5 -10 -17 -24 -25 -32
-22 -17 -20 -28 7 -51 30 -25 67 -25 67 0 0 11 -4 23 -10 26 -16 10 -11 23 8
21 9 -2 17 -8 17 -14 0 -6 3 -14 8 -18 4 -4 7 -11 7 -16 0 -15 -40 -48 -58
-48 -23 0 -84 59 -75 73 3 6 1 7 -6 3 -12 -8 -41 16 -41 34 0 7 6 8 19 1 14
-8 23 -5 41 14 28 30 56 34 41 7z m-96 -103 c0 -8 -6 -13 -12 -11 -21 4 -15
-28 12 -60 14 -16 25 -36 25 -44 0 -24 -20 -55 -31 -48 -6 4 -5 14 4 28 13 19
13 24 -3 43 -10 12 -20 19 -24 16 -3 -4 -6 -2 -7 3 0 5 -2 18 -5 29 -5 25 16
67 30 62 6 -2 11 -10 11 -18z m155 -119 c0 -6 -9 -5 -20 2 -11 7 -20 16 -20
21 0 4 9 3 20 -3 11 -6 20 -15 20 -20z"/>
<path d="M3500 3923 c0 -5 -9 -9 -20 -9 -10 1 -18 -3 -17 -9 2 -11 27 -8 41 6
5 5 7 12 3 16 -4 3 -7 2 -7 -4z"/>
<path d="M2869 3800 c-31 -4 -62 -11 -70 -16 -15 -9 -31 -14 -69 -18 -39 -5
-40 -5 -40 -27 0 -11 3 -18 8 -16 4 3 8 -14 8 -37 2 -49 147 -883 156 -891 5
-4 232 36 240 44 3 3 -22 166 -57 361 -58 327 -82 444 -84 413 -2 -24 -37 -13
-47 15 -13 35 -8 51 15 45 10 -3 21 -1 24 4 6 10 -12 116 -21 124 -4 3 -32 2
-63 -1z m-51 -93 c5 -24 -21 -31 -71 -20 l-42 9 30 17 c37 21 79 18 83 -6z
m102 -127 c0 -5 -4 -10 -9 -10 -6 0 -22 -11 -37 -25 -15 -14 -33 -25 -40 -25
-23 0 -16 28 8 36 12 3 28 13 36 20 16 16 42 19 42 4z"/>
<path d="M5959 3686 c-2 -3 -51 -10 -107 -16 -57 -6 -109 -13 -116 -16 -10 -4
-10 -17 -3 -59 8 -41 15 -55 31 -60 18 -6 19 -8 4 -12 -10 -2 -18 -9 -18 -15
0 -14 32 -192 36 -196 2 -3 263 38 270 42 1 1 -6 46 -15 101 l-16 100 -37 3
c-21 2 -53 -1 -73 -7 -20 -5 -46 -6 -57 -2 -19 7 -19 8 8 19 16 6 55 13 87 17
57 6 57 7 57 40 0 40 -33 79 -51 61z"/>
<path d="M12322 3660 c-18 -11 -56 -32 -83 -46 l-50 -26 23 -23 23 -22 75 40
c100 53 110 62 85 82 -26 19 -34 19 -73 -5z"/>
<path d="M1895 3597 c-18 -14 -17 -17 14 -108 117 -337 425 -635 894 -865 91
-45 120 -55 126 -45 7 10 12 8 24 -9 20 -29 160 -88 365 -154 291 -94 566
-161 867 -210 88 -15 185 -31 215 -36 59 -10 350 -44 489 -58 68 -7 86 -6 98
7 9 8 39 16 72 18 l56 3 -39 -19 -39 -19 84 -7 c46 -4 158 -10 248 -13 135 -6
167 -4 185 8 19 13 20 13 7 -3 -31 -39 1001 -14 1554 38 643 60 1313 162 1875
285 52 12 115 25 140 30 59 12 360 84 430 103 30 8 77 27 104 42 38 22 50 25
56 15 10 -16 30 -11 395 97 234 69 654 206 790 258 260 99 335 128 520 206
236 98 307 130 584 266 l194 95 -24 19 c-13 10 -27 19 -30 19 -4 0 -103 -47
-220 -104 -118 -57 -236 -113 -264 -126 -552 -246 -1028 -418 -1713 -620 -47
-13 -72 -25 -69 -33 3 -8 -12 -12 -52 -13 -43 0 -328 -66 -337 -77 -1 -1 -7
-12 -13 -24 -14 -27 -24 -29 -44 -8 -13 13 -39 9 -213 -31 -182 -42 -222 -57
-224 -85 0 -3 -12 -11 -26 -18 -22 -10 -32 -9 -59 8 l-34 19 -168 -33 c-92
-18 -257 -48 -366 -66 -177 -30 -196 -35 -191 -51 7 -22 -5 -23 -20 -2 -10 13
-21 14 -81 4 -103 -16 -459 -64 -600 -80 -625 -70 -1166 -96 -1805 -86 -234 4
-454 11 -490 16 -36 4 -108 11 -160 15 -52 4 -176 16 -275 27 -99 11 -205 21
-236 23 -31 2 -73 8 -95 13 -21 6 -64 14 -94 17 -30 4 -64 9 -75 11 -11 3 -76
16 -145 29 -380 74 -703 163 -958 264 -63 25 -68 26 -48 5 15 -15 21 -34 11
-34 -2 0 -23 18 -46 40 -49 46 -71 55 -98 41 -30 -16 -61 -13 -61 5 0 13 7 15
35 10 19 -4 35 -5 35 -2 0 3 -48 29 -107 57 -453 217 -765 516 -879 844 -17
49 -35 90 -40 92 -6 2 -18 -3 -29 -10z m4471 -1491 c-22 -7 -51 -10 -65 -7
-24 5 -24 6 9 12 19 3 49 6 65 7 28 0 27 -1 -9 -12z"/>
<path d="M1704 3570 c-11 -4 -46 -11 -76 -15 -54 -7 -56 -8 -49 -34 6 -19 13
-25 29 -23 27 4 29 -12 3 -24 -19 -9 -19 -12 14 -98 18 -48 37 -92 42 -97 6
-6 22 -4 41 4 18 7 30 16 26 19 -3 3 7 9 23 12 16 4 40 14 55 24 l26 17 -32
77 c-19 48 -37 78 -46 78 -12 0 -12 2 -2 9 18 11 5 61 -17 60 -9 0 -25 -4 -37
-9z"/>
<path d="M2899 2482 c6 -11 8 -22 5 -24 -2 -3 13 -10 35 -16 31 -7 43 -7 52 4
11 13 -13 27 -80 49 -20 6 -22 5 -12 -13z"/>
<path d="M8942 2463 c-12 -2 -20 -9 -17 -14 9 -14 45 -11 61 6 14 13 13 15 -3
14 -10 -1 -28 -4 -41 -6z"/>
<path d="M0 450 l0 -450 8000 0 8000 0 0 450 0 450 -8000 0 -8000 0 0 -450z
m1673 163 c8 -10 18 -29 22 -43 7 -29 -9 -80 -25 -80 -6 0 -8 5 -4 12 5 7 -5
3 -20 -10 -36 -27 -56 -28 -90 -1 -33 26 -37 88 -6 119 26 26 100 28 123 3z
m11831 -73 c37 -14 35 -64 -5 -110 l-30 -35 36 -3 c22 -2 35 -8 35 -18 0 -11
-14 -14 -60 -14 -74 0 -77 12 -20 74 22 24 40 51 40 60 0 24 -30 33 -45 13
-15 -21 -35 -22 -35 -3 0 14 36 46 52 46 3 0 18 -4 32 -10z m168 -17 c20 -24
16 -118 -6 -142 -54 -59 -119 14 -98 109 12 54 71 73 104 33z m121 16 c12 -7
25 -17 29 -23 11 -17 9 -82 -3 -109 -10 -23 -46 -47 -69 -47 -19 0 -10 25 12
35 28 13 36 35 9 28 -25 -6 -61 29 -61 60 0 33 22 57 58 66 2 1 13 -4 25 -10z
m325 -30 c17 -31 9 -104 -13 -129 -53 -58 -117 16 -97 110 14 61 81 73 110 19z
m140 13 c18 -24 16 -122 -5 -144 -16 -18 -49 -23 -69 -10 -20 13 -34 50 -34
92 0 74 67 113 108 62z m700 -9 c40 -55 14 -131 -51 -147 -31 -8 -42 -6 -65
11 -82 61 -25 189 72 162 17 -5 37 -17 44 -26z m602 -58 c0 -78 -3 -95 -15
-95 -12 0 -15 17 -15 95 0 78 3 95 15 95 12 0 15 -17 15 -95z m-2403 -2 c-2
-75 -5 -88 -19 -91 -16 -3 -18 6 -18 87 0 83 2 91 19 91 18 0 19 -8 18 -87z
m148 62 c57 -56 18 -143 -68 -152 l-47 -6 0 92 0 91 45 0 c35 0 52 -6 70 -25z
m655 -30 c0 -30 5 -55 10 -55 6 0 10 -7 10 -15 0 -8 -4 -15 -10 -15 -5 0 -10
-9 -10 -20 0 -11 -7 -20 -15 -20 -8 0 -15 9 -15 20 0 17 -7 20 -40 20 -22 0
-40 5 -40 10 0 23 76 130 92 130 15 0 18 -9 18 -55z m460 45 c0 -26 -71 -165
-85 -168 -20 -5 -15 18 21 90 13 26 24 52 24 58 0 5 -20 10 -45 10 -25 0 -45
5 -45 10 0 6 28 10 65 10 36 0 65 -4 65 -10z m150 4 c0 -3 -17 -43 -37 -90
-26 -61 -41 -84 -54 -84 -16 0 -14 9 16 76 19 42 35 78 35 80 0 2 -20 4 -45 4
-25 0 -45 5 -45 10 0 6 28 10 65 10 36 0 65 -3 65 -6z m110 -85 c0 -81 -2 -90
-17 -87 -15 3 -18 15 -19 68 -2 60 -3 65 -23 63 -31 -4 -26 23 7 35 51 19 52
18 52 -79z m463 28 c11 -32 23 -55 27 -50 4 4 15 32 25 61 14 44 20 52 41 52
24 0 24 -1 24 -90 0 -72 -3 -90 -15 -90 -10 0 -15 16 -17 63 l-3 62 -24 -63
c-13 -34 -29 -61 -35 -59 -6 2 -19 26 -29 53 -26 70 -32 71 -29 4 4 -55 2 -60
-17 -60 -20 0 -21 5 -21 91 l0 90 27 -3 c23 -3 29 -11 46 -61z m365 51 c-3 -7
-21 -14 -41 -16 -29 -3 -37 -7 -37 -23 0 -15 7 -19 35 -19 24 0 35 -5 35 -15
0 -10 -10 -15 -34 -15 -33 0 -35 -2 -38 -37 -2 -27 -8 -39 -20 -41 -16 -3 -18
6 -18 87 l0 91 61 0 c44 0 60 -3 57 -12z m-15148 -107 c0 -84 -3 -102 -21
-125 -29 -37 -89 -37 -118 0 -23 30 -28 90 -8 115 17 23 56 41 73 35 23 -9 16
-35 -11 -42 -44 -11 -45 -84 -1 -92 36 -7 46 17 46 108 0 88 3 100 27 100 10
0 13 -23 13 -99z m15010 63 c0 -7 -9 -16 -20 -19 -16 -5 -20 -15 -20 -56 0
-42 -3 -49 -20 -49 -18 0 -20 7 -20 69 l0 68 40 0 c26 0 40 -4 40 -13z m261
-26 l12 -43 14 43 c8 23 21 42 29 42 19 0 18 -15 -7 -91 -23 -68 -43 -99 -66
-99 -18 0 -17 20 2 34 14 10 13 20 -9 84 -24 69 -24 72 -6 72 14 0 22 -12 31
-42z m-14194 13 c4 -16 15 -21 52 -23 38 -3 46 -6 46 -23 0 -17 -8 -20 -47
-23 -47 -3 -48 -4 -48 -36 0 -35 22 -62 40 -51 6 4 15 18 21 32 10 28 33 26
37 -3 5 -32 -35 -74 -69 -74 -53 0 -69 29 -69 123 0 46 3 87 7 90 12 13 25 7
30 -12z m-943 -36 c3 -9 -4 -21 -19 -31 -20 -13 -25 -25 -27 -72 -2 -45 -7
-58 -20 -60 -16 -3 -18 5 -18 67 0 59 3 73 22 91 26 24 54 26 62 5z m164 -1
c12 -8 22 -20 22 -27 0 -16 -51 -67 -67 -67 -16 0 -17 32 -1 48 9 9 8 12 -5
12 -10 0 -23 -11 -29 -25 -17 -37 12 -65 68 -65 47 0 62 -13 44 -35 -16 -19
-73 -19 -110 0 -38 20 -57 74 -40 116 23 55 74 74 118 43z m206 -7 c22 -22 36
-77 33 -127 -1 -18 -8 -25 -22 -25 -16 0 -21 8 -23 40 -4 71 -10 85 -36 85
-52 0 -60 -71 -11 -90 29 -11 33 -40 6 -40 -33 0 -51 11 -66 41 -23 43 -18 77
14 110 36 35 73 38 105 6z m183 12 c8 -8 16 -7 30 2 29 18 70 3 88 -31 16 -32
21 -135 6 -144 -25 -16 -40 7 -43 67 -3 54 -5 62 -23 62 -18 0 -20 -8 -23 -63
-3 -53 -6 -63 -20 -60 -13 2 -18 16 -20 61 -2 41 -8 60 -18 64 -25 9 -36 -12
-38 -69 -1 -46 -4 -53 -21 -53 -17 0 -21 8 -23 44 -4 57 3 86 28 111 22 22 60
26 77 9z m317 -6 c7 -18 -9 -33 -36 -33 -14 0 -18 -8 -18 -36 0 -36 -15 -73
-34 -86 -6 -4 -24 -8 -39 -8 -22 0 -28 4 -25 17 2 10 12 19 23 22 27 5 35 19
35 64 0 43 28 77 64 77 13 0 27 -8 30 -17z m261 -74 c0 -72 -2 -84 -17 -87
-16 -3 -18 6 -18 81 0 46 3 87 7 91 19 19 28 -7 28 -85z m175 81 c87 9 103 -6
108 -100 4 -66 3 -70 -17 -70 -19 0 -21 6 -21 49 0 62 -7 81 -31 81 -16 0 -19
-8 -20 -47 -2 -74 -3 -77 -21 -81 -10 -2 -18 0 -19 5 0 4 -1 29 -2 55 -4 93
-54 94 -59 1 -2 -46 -7 -59 -20 -61 -16 -3 -18 5 -18 64 0 56 4 72 22 92 18
19 29 22 53 17 16 -4 37 -6 45 -5z m278 -6 c12 -8 22 -21 22 -29 0 -23 -50
-75 -65 -68 -20 7 -19 22 2 45 13 15 14 18 2 18 -22 0 -39 -21 -39 -46 0 -27
17 -41 55 -46 19 -2 31 -9 33 -20 3 -15 -4 -18 -42 -18 -36 0 -48 5 -65 26
-61 77 20 192 97 138z m272 -4 c24 -24 26 -46 4 -54 -10 -4 -23 3 -34 16 -32
39 -70 0 -56 -57 8 -32 33 -38 57 -14 13 13 27 18 39 14 41 -13 -17 -75 -70
-75 -64 0 -99 116 -50 168 27 29 83 29 110 2z m174 5 c28 -21 37 -88 17 -128
-43 -86 -151 -45 -151 57 0 69 80 112 134 71z m182 4 c8 -7 14 -6 19 1 3 5 21
10 40 10 49 0 65 -28 65 -112 0 -68 -7 -83 -34 -72 -11 4 -16 23 -18 72 -3 59
-5 67 -23 67 -18 0 -21 -8 -25 -70 -4 -62 -7 -70 -25 -70 -18 0 -21 8 -25 70
-4 62 -7 70 -25 70 -18 0 -20 -8 -23 -67 -2 -49 -7 -68 -18 -72 -9 -3 -20 -4
-25 0 -9 5 -13 167 -4 176 9 9 109 7 121 -3z m-523 -133 c8 -21 -16 -48 -36
-40 -17 6 -23 35 -10 47 11 12 41 7 46 -7z"/>
<path d="M1577 592 c-36 -39 -13 -97 35 -90 29 4 39 54 13 65 -19 7 -38 -15
-28 -31 4 -6 8 -5 11 2 5 17 22 15 22 -3 0 -21 -27 -30 -45 -15 -21 17 -19 43
4 64 27 24 59 12 76 -27 8 -18 14 -25 15 -16 0 26 -39 69 -64 69 -13 0 -30 -8
-39 -18z"/>
<path d="M13604 507 c-3 -8 -4 -36 -2 -63 3 -41 6 -49 23 -49 18 0 20 7 20 60
0 49 -3 60 -18 63 -9 2 -20 -3 -23 -11z"/>
<path d="M13751 502 c-11 -21 3 -52 25 -52 20 0 28 24 14 49 -13 26 -26 27
-39 3z"/>
<path d="M14045 497 c-4 -13 -5 -41 -3 -63 2 -31 7 -39 23 -39 18 0 20 7 20
60 0 48 -3 60 -17 63 -11 2 -19 -5 -23 -21z"/>
<path d="M14197 513 c-4 -3 -7 -30 -7 -60 0 -40 4 -55 16 -60 22 -8 34 14 34
63 0 48 -23 78 -43 57z"/>
<path d="M14840 510 c-24 -24 -26 -77 -4 -108 21 -31 87 -31 108 0 38 54 6
128 -54 128 -17 0 -39 -9 -50 -20z m80 -15 c7 -9 9 -19 5 -23 -4 -4 -10 -1
-12 6 -9 23 -42 13 -49 -15 -5 -19 -2 -30 12 -40 16 -12 20 -11 31 3 7 10 16
15 19 11 13 -13 -20 -38 -45 -35 -22 3 -26 9 -29 41 -5 59 36 90 68 52z"/>
<path d="M13236 513 c-3 -4 -6 -33 -6 -65 0 -62 13 -74 44 -42 16 16 21 71 8
90 -9 14 -38 24 -46 17z"/>
<path d="M13907 460 c-18 -29 -18 -30 2 -30 17 0 21 6 21 30 0 17 -1 30 -3 30
-1 0 -11 -13 -20 -30z"/>
<path d="M2452 398 c-7 -7 -12 -27 -12 -45 0 -41 30 -61 54 -37 18 18 20 33 6
68 -10 28 -29 33 -48 14z"/>
</g>
</svg>
